<?xml version="1.0" encoding="UTF-8"?>
<svg version="1.1" xmlns="http://www.w3.org/2000/svg" width="221" height="335">
<path d="M0 0 C72.93 0 145.86 0 221 0 C221 110.55 221 221.1 221 335 C148.07 335 75.14 335 0 335 C0 224.45 0 113.9 0 0 Z " fill="#A4A4A4" transform="translate(0,0)"/>
<path d="M0 0 C12.354375 -0.2475 24.70875 -0.495 37.4375 -0.75 C41.32329834 -0.85924805 45.20909668 -0.96849609 49.21264648 -1.08105469 C53.99621582 -1.13525391 53.99621582 -1.13525391 56.24305725 -1.14532471 C57.79641596 -1.16362984 59.34961474 -1.20559034 60.90187073 -1.26690674 C73.98210594 -1.7572953 73.98210594 -1.7572953 78.98857117 2.60261536 C81.37661506 5.51917153 83.20969707 8.68494365 85 12 C85.89790317 13.41465235 86.80093426 14.82610383 87.71484375 16.23046875 C88.4691593 17.54184502 89.20996649 18.86107825 89.9375 20.1875 C90.34226562 20.9194458 90.74703125 21.6513916 91.1640625 22.40551758 C97.83650243 34.89196237 103.11504437 48.40265531 107 62 C99.74 62 92.48 62 85 62 C90.78597709 68.62950274 90.78597709 68.62950274 96.83984375 74.9375 C97.67451172 75.76894531 98.50917969 76.60039062 99.36914062 77.45703125 C100.21669922 78.29621094 101.06425781 79.13539063 101.9375 80 C102.81212891 80.87011719 103.68675781 81.74023438 104.58789062 82.63671875 C106.72297449 84.76013549 108.86037205 86.88116378 111 89 C117.18134869 83.89551178 122.79822878 78.31705058 128.4375 72.625 C129.35982422 71.69816406 130.28214844 70.77132812 131.23242188 69.81640625 C133.4905762 67.54655165 135.74560603 65.27358938 138 63 C131.07 62.67 124.14 62.34 117 62 C120.38332684 50.72224386 120.38332684 50.72224386 122.56640625 45.93359375 C123.28727417 44.35179321 123.28727417 44.35179321 124.02270508 42.73803711 C124.78490356 41.10427124 124.78490356 41.10427124 125.5625 39.4375 C126.35660278 37.72929077 126.35660278 37.72929077 127.16674805 35.98657227 C130.30912315 29.32579124 133.58649616 22.79172618 137.3125 16.4375 C137.86949585 15.48605103 137.86949585 15.48605103 138.43774414 14.51538086 C139.15670478 13.33214733 139.90300883 12.16491428 140.68083191 11.01951599 C142.05072236 8.9956036 142.05072236 8.9956036 143.19268799 6.7024231 C144.89324207 3.88133401 146.38915055 2.03142643 149 0 C154.47406842 -1.26792929 159.85929068 -1.05230624 165.43359375 -0.87890625 C166.85612823 -0.86565613 168.2787067 -0.85648532 169.70129395 -0.85144043 C174.94736972 -0.80445559 180.19250309 -0.67880136 185.4375 -0.5625 C203.0409375 -0.2840625 203.0409375 -0.2840625 221 0 C221 33.33 221 66.66 221 101 C148.07 101 75.14 101 0 101 C0 67.67 0 34.34 0 0 Z " fill="#FEFEFE" transform="translate(0,234)"/>
<path d="M0 0 C1 1 1 1 1.13061523 3.46484375 C1.09853444 15.16528578 0.66875024 26.84631955 0.20043945 38.53662109 C0.06169004 42.02033655 -0.06999026 45.50427351 -0.20117188 48.98828125 C-0.28863948 51.22137078 -0.37651544 53.45444435 -0.46484375 55.6875 C-0.50343002 56.71987793 -0.5420163 57.75225586 -0.58177185 58.81591797 C-0.79268027 63.94595894 -1.1538215 68.93444164 -2 74 C-4.475 74.495 -4.475 74.495 -7 75 C-6.896875 76.093125 -6.79375 77.18625 -6.6875 78.3125 C-7 82 -7 82 -9.015625 83.75390625 C-12.84123298 85.3512478 -16.04448018 85.06694535 -20.0625 84.625 C-26.09638658 83.89940864 -26.09638658 83.89940864 -32 85 C-31.814375 86.60875 -31.814375 86.60875 -31.625 88.25 C-32 92 -32 92 -34.375 94.5 C-40.08197968 96.86150883 -45.04219442 95.62932034 -50.9375 94.375 C-53.18708867 93.79523366 -53.18708867 93.79523366 -56 95 C-57.39439664 95.06665376 -58.79169875 95.08538199 -60.1875 95.0625 C-61.445625 95.041875 -62.70375 95.02125 -64 95 C-64.33 93.35 -64.66 91.7 -65 90 C-66.09957031 89.74605469 -67.19914062 89.49210937 -68.33203125 89.23046875 C-69.82558914 88.88310608 -71.31907371 88.53542805 -72.8125 88.1875 C-73.58988525 88.00735352 -74.36727051 87.82720703 -75.16821289 87.64160156 C-79.46988626 86.63384974 -83.70546083 85.52449018 -87.9375 84.25 C-93.00592011 82.81187466 -97.763169 82.69328756 -103 83 C-103.33 81.68 -103.66 80.36 -104 79 C-105.010625 78.9175 -106.02125 78.835 -107.0625 78.75 C-112.66385617 78.07863888 -118.01135783 76.40495716 -123.4140625 74.83984375 C-128.88670842 73.55812385 -133.5195172 73.95609851 -139 75 C-139 73.35 -139 71.7 -139 70 C-139.8353125 69.81824219 -139.8353125 69.81824219 -140.6875 69.6328125 C-141.450625 69.46523437 -142.21375 69.29765625 -143 69.125 C-143.82757813 68.94453125 -144.65515625 68.7640625 -145.5078125 68.578125 C-147.65958464 68.07896783 -149.75503892 67.49075633 -151.875 66.875 C-156.17510341 65.75436699 -160.35997397 65.88759202 -164.77734375 66.02734375 C-167 66 -167 66 -168 65 C-168.09935148 62.98049791 -168.12799508 60.95749085 -168.12939453 58.93554688 C-168.13254669 57.63750122 -168.13569885 56.33945557 -168.13894653 55.0020752 C-168.13715675 53.57429979 -168.1351058 52.14652469 -168.1328125 50.71875 C-168.13348558 49.26525862 -168.13445564 47.81176736 -168.13571167 46.35827637 C-168.13718846 43.30833873 -168.1350347 40.25843034 -168.13037109 37.20849609 C-168.1246738 33.29069441 -168.12795291 29.37296122 -168.13394356 25.45516205 C-168.13754969 22.45269246 -168.13641035 19.45023923 -168.13381577 16.44776917 C-168.13314664 15.00281262 -168.13397442 13.55785461 -168.13629532 12.11289978 C-168.13882265 10.09675117 -168.13429052 8.08059738 -168.12939453 6.06445312 C-168.12859894 4.91497192 -168.12780334 3.76549072 -168.12698364 2.58117676 C-168 0 -168 0 -167 -1 C-165.41842353 -1.15285406 -163.83029056 -1.23836087 -162.24243164 -1.29711914 C-160.69634216 -1.35703033 -160.69634216 -1.35703033 -159.11901855 -1.41815186 C-157.97759399 -1.45676331 -156.83616943 -1.49537476 -155.66015625 -1.53515625 C-154.46483276 -1.57835999 -153.26950928 -1.62156372 -152.03796387 -1.66607666 C-148.04636191 -1.80610489 -144.05455502 -1.93622998 -140.0625 -2.0625 C-139.03612993 -2.09538431 -139.03612993 -2.09538431 -137.98902512 -2.12893295 C-36.50682201 -5.36538126 -36.50682201 -5.36538126 0 0 Z " fill="#F9F9F9" transform="translate(195,76)"/>
<path d="M0 0 C17.36270462 0.66342821 34.6715777 1.73476181 52 3 C52.17237171 13.78153121 51.70358441 24.51803289 51.20043945 35.28515625 C51.06214505 38.25762928 50.93019632 41.23033869 50.79882812 44.203125 C50.71131585 46.11980898 50.62343794 48.03647631 50.53515625 49.953125 C50.47727684 51.26594452 50.47727684 51.26594452 50.41822815 52.60528564 C50.15602868 58.1048344 49.81903968 63.55235513 49 69 C48.01 69.495 48.01 69.495 47 70 C44.94546529 62.43756372 43.3614877 54.86740305 42.09057617 47.14086914 C41.29091771 42.35255279 40.22713775 37.69788359 39 33 C35.58343976 32.83322718 35.58343976 32.83322718 32 33 C31.34 33.66 30.68 34.32 30 35 C28.01178687 35.39764263 26.01055661 35.73775349 24 36 C23.86520737 36.59468582 23.73041473 37.18937164 23.59153748 37.80207825 C22.18257502 43.99108886 20.73226496 50.1693474 19.25756836 56.34301758 C18.71271579 58.64813812 18.17845167 60.95578818 17.6550293 63.26586914 C16.90062461 66.58681993 16.1085646 69.89680217 15.30859375 73.20703125 C15.0822374 74.2414888 14.85588104 75.27594635 14.62266541 76.3417511 C12.85034164 83.44500674 12.85034164 83.44500674 8.66821289 86.17456055 C5.27134104 86.93894149 2.45632651 87.06435536 -1 87 C-1.02350793 79.05266659 -1.04110577 71.10534849 -1.05181217 63.15798855 C-1.05695908 59.46493206 -1.06390097 55.77189991 -1.07543945 52.07885742 C-1.12836814 34.69236088 -0.97536967 17.36641854 0 0 Z " fill="#A7A7A7" transform="translate(140,77)"/>
<path d="M0 0 C1.8085144 0.00374634 1.8085144 0.00374634 3.65356445 0.00756836 C5.93460083 0.02122437 5.93460083 0.02122437 8.26171875 0.03515625 C15.53203125 0.06609375 15.53203125 0.06609375 22.94921875 0.09765625 C22.94921875 13.29765625 22.94921875 26.49765625 22.94921875 40.09765625 C16.51421875 39.38609375 16.51421875 39.38609375 9.94921875 38.66015625 C8.61246094 38.51263916 7.27570313 38.36512207 5.8984375 38.21313477 C4.82207031 38.09381592 3.74570313 37.97449707 2.63671875 37.8515625 C1.54746094 37.73111572 0.45820312 37.61066895 -0.6640625 37.48657227 C-4.46280172 37.05034162 -8.25660377 36.57192843 -12.05078125 36.09765625 C-12.05078125 24.54765625 -12.05078125 12.99765625 -12.05078125 1.09765625 C-7.76710967 0.24092193 -4.32520794 -0.01840514 0 0 Z " fill="#A7A7A7" transform="translate(108.05078125,76.90234375)"/>
<path d="M0 0 C27.40425532 1.46808511 27.40425532 1.46808511 35 4 C35 15.88 35 27.76 35 40 C32.31875 39.401875 29.6375 38.80375 26.875 38.1875 C19.8332413 36.6178081 12.78421322 35.09166569 5.72265625 33.61328125 C3 33 3 33 0 32 C0 21.44 0 10.88 0 0 Z " fill="#A7A7A7" transform="translate(96,117)"/>
<path d="M0 0 C10.23 0 20.46 0 31 0 C31 11.22 31 22.44 31 34 C28.298125 33.71125 25.59625 33.4225 22.8125 33.125 C21.58043823 32.99569092 21.58043823 32.99569092 20.32348633 32.86376953 C13.49478595 32.11859125 6.81415073 31.04833088 0 30 C0 20.1 0 10.2 0 0 Z " fill="#A7A7A7" transform="translate(61,78)"/>
<path d="M0 0 C10.125 1.125 10.125 1.125 14.69140625 1.75390625 C15.99766968 1.93288452 15.99766968 1.93288452 17.33032227 2.11547852 C18.93025024 2.33675415 18.93025024 2.33675415 20.5625 2.5625 C24.006875 3.036875 27.45125 3.51125 31 4 C31 14.56 31 25.12 31 36 C20.77 34.02 10.54 32.04 0 30 C0 20.1 0 10.2 0 0 Z " fill="#A7A7A7" transform="translate(60,112)"/>
<path d="M0 0 C3.073125 0.309375 6.14625 0.61875 9.3125 0.9375 C10.75943237 1.08046509 10.75943237 1.08046509 12.2355957 1.22631836 C13.38161255 1.34438843 13.38161255 1.34438843 14.55078125 1.46484375 C15.33106689 1.543396 16.11135254 1.62194824 16.9152832 1.70288086 C19 2 19 2 22 3 C22 12.24 22 21.48 22 31 C13 30 13 30 0 27 C0 18.09 0 9.18 0 0 Z " fill="#A6A6A6" transform="translate(34,109)"/>
<path d="M0 0 C7.59 0 15.18 0 23 0 C22.67 9.24 22.34 18.48 22 28 C14.60849343 27.50249475 7.35634987 26.91954373 0 26 C0 17.42 0 8.84 0 0 Z " fill="#A6A6A6" transform="translate(34,79)"/>
<path d="M0 0 C2.05817582 3.08726373 2.57047185 4.96335564 3.2890625 8.55078125 C3.61777344 10.18756836 3.61777344 10.18756836 3.953125 11.85742188 C4.17484375 12.99759766 4.3965625 14.13777344 4.625 15.3125 C4.85445312 16.44107422 5.08390625 17.56964844 5.3203125 18.73242188 C6.36784184 24.02930387 7 28.54360382 7 34 C1.72 35.98 -3.56 37.96 -9 40 C-8.32956039 34.63648314 -7.58385916 29.70082321 -6.40625 24.47265625 C-6.25466431 23.79827011 -6.10307861 23.12388397 -5.94689941 22.42906189 C-5.62940149 21.02121196 -5.31000856 19.61378812 -4.98876953 18.20678711 C-4.49594268 16.04470008 -4.01129119 13.88088674 -3.52734375 11.71679688 C-3.21662835 10.34364073 -2.90544761 8.97058978 -2.59375 7.59765625 C-2.31208984 6.35508057 -2.03042969 5.11250488 -1.74023438 3.83227539 C-1 1 -1 1 0 0 Z " fill="#A9A9A9" transform="translate(174,116)"/>
</svg>
